<svg width="28" height="25" viewBox="0 0 28 25" fill="none" xmlns="http://www.w3.org/2000/svg">
<path d="M1.3951 6.10455C2.2411 7.54455 4.0681 9.25455 4.0681 9.25455C4.0681 9.25455 2.7181 7.52655 1.9531 5.87955C1.6831 5.27655 1.4761 4.59255 1.3591 3.99855C1.2061 3.16155 1.5751 2.25255 2.4571 1.95555C3.8341 1.47855 4.6441 3.21555 5.1031 4.16955C5.3911 4.76355 5.6431 5.39355 5.9041 6.02355L5.9761 6.51855L6.1291 6.02355C6.3631 5.24955 6.6691 4.49355 7.0111 3.77355C7.3711 3.06255 7.7761 2.36055 8.3071 1.81155C8.5681 1.54155 8.8651 1.29855 9.1801 1.14555C9.4951 0.983549 9.8281 0.911548 10.1701 0.938548C11.1421 1.01055 11.8981 1.69455 11.9071 2.69355C11.9161 3.27855 11.6821 3.83655 11.3851 4.33155C10.0531 6.54555 7.8481 7.89555 5.9401 9.56055C3.7351 11.4865 1.2061 13.7545 0.531104 16.7245C0.333104 17.5705 0.360104 18.5155 0.702104 19.3345C0.873104 19.7485 1.0981 20.1175 1.3681 20.4595C1.6651 20.8015 1.9981 21.0715 2.3761 21.2875C2.7541 21.5035 3.1681 21.6476 3.5911 21.7286C4.0141 21.8096 4.4371 21.8095 4.8601 21.7645C5.6971 21.6745 6.4891 21.3955 7.2001 20.9815C6.4531 21.3055 5.6431 21.4945 4.8511 21.5125C4.0501 21.5215 3.2671 21.3325 2.6281 20.8915C2.3131 20.6755 2.0341 20.3966 1.8091 20.1086C1.5931 19.8026 1.4131 19.4515 1.2961 19.1005C1.0531 18.3895 1.0801 17.6155 1.2871 16.8865C1.4851 16.1575 1.8631 15.4645 2.2951 14.8075C3.2581 13.3765 4.5361 12.2965 5.8411 11.1985C7.2451 10.0195 8.7571 8.95755 10.1701 7.78755C11.3221 6.83355 12.4471 5.61855 13.0051 4.21455C14.1121 1.23555 11.4301 -1.00545 8.8471 0.461549C8.4421 0.695549 8.1091 1.00155 7.8301 1.34355C7.2811 2.01855 6.8941 2.78355 6.5971 3.55755C6.3811 4.11555 6.2101 4.68255 6.0751 5.24955C6.0121 4.79055 5.9131 4.34055 5.7871 3.89055C5.5891 3.21555 5.3461 2.54955 4.9501 1.91955C4.7521 1.60455 4.5091 1.29855 4.1941 1.03755C3.8791 0.776549 3.4471 0.551548 2.9701 0.533548C2.4931 0.506548 2.0521 0.659549 1.6921 0.866549C1.5211 0.974549 1.3501 1.08255 1.1881 1.24455C1.0351 1.38855 0.891104 1.55955 0.774104 1.74855C0.540104 2.12655 0.432104 2.55855 0.414104 2.96355C0.396104 3.36855 0.450104 3.75555 0.549104 4.11555C0.711104 4.86255 1.0351 5.50155 1.3951 6.10455Z" fill="white"/>
<path d="M0 22.6287C0.081 23.5737 2.124 24.3117 3.231 24.3117H23.805C24.912 24.3117 26.955 23.5647 27.036 22.6287H0Z" fill="white"/>
<path d="M15.626 8.7026C15.67 8.35244 15.4219 8.03291 15.0717 7.9889C14.7215 7.94489 14.402 8.19307 14.358 8.54323C14.314 8.89339 14.5622 9.21292 14.9123 9.25693C15.2625 9.30094 15.582 9.05275 15.626 8.7026Z" fill="white"/>
<path d="M14.8592 9.70469C8.79325 8.93969 3.25825 13.1787 2.38525 19.1997L24.5972 21.9897C25.2362 15.9417 20.9162 10.4697 14.8592 9.70469ZM22.8332 17.3007C22.7882 17.3097 22.7432 17.2827 22.7162 17.2467C22.3652 16.7247 22.0232 16.2207 21.6542 15.7257C21.5642 15.6087 21.4652 15.4827 21.3752 15.3567L21.0872 14.9967C20.8982 14.7627 20.7002 14.5287 20.4932 14.3037C20.0882 13.8447 19.6562 13.4217 19.2062 13.0167C18.7562 12.6117 18.2793 12.2427 17.7663 11.8917C17.7123 11.8557 17.6943 11.7927 17.7213 11.7387C17.7393 11.7027 17.7932 11.6847 17.8382 11.7027C18.4142 11.9097 18.9722 12.2337 19.4852 12.6207C19.9982 12.9987 20.4752 13.4487 20.9072 13.9257C21.1232 14.1687 21.3212 14.4207 21.5192 14.6727C21.7082 14.9337 21.8972 15.1947 22.0592 15.4737C22.3922 16.0227 22.6802 16.5897 22.8782 17.1837C22.9142 17.2377 22.8872 17.2917 22.8332 17.3007Z" fill="white"/>
</svg>
