<svg width="707" height="704" viewBox="0 0 707 704" fill="none" xmlns="http://www.w3.org/2000/svg">
<path d="M370.058 0.0837972C385.891 3.68713 402.227 5.78209 417.39 11.3128C477.539 33.1842 516.41 76.0052 530.986 137.932C549.081 214.524 530.232 282.401 473.853 338.294C412.782 398.881 313.092 403.909 246.576 349.272C186.008 299.579 162.468 234.384 172.604 157.457C180.311 99.1336 210.218 54.3014 261.069 24.2177C282.347 11.648 305.636 4.60892 330.182 1.50837C332.611 1.17318 334.957 0.502791 337.302 0C348.277 0.0837985 359.167 0.0837972 370.058 0.0837972ZM225.298 185.362C226.135 229.943 239.874 266.898 270.284 296.982C314.013 340.306 382.54 343.657 429.118 303.853C472.093 267.149 488.262 219.384 479.801 164.245C464.638 65.6142 360.591 30.5026 287.206 73.2398C243.895 98.4632 226.722 139.105 225.298 185.362Z" fill="#000000"/>
<path d="M650.537 703.832C645.839 633.897 620.418 574.876 560.684 534.073C523.937 508.971 482.576 496.629 439.201 489.829C389.03 482.105 338.692 481.517 288.354 487.058C236.757 492.683 187.342 505.528 143.799 535.669C108.479 560.184 84.2326 593.094 70.1379 633.477C62.2516 656.145 57.1339 679.569 56.4627 703.748C37.6698 703.748 18.8768 703.748 0 703.748C0 701.229 0 698.795 0 696.276C2.34912 681.92 4.19484 667.479 7.21513 653.207C27.2665 557.245 84.2326 492.683 174.841 457.086C214.525 441.722 255.97 434.166 298.254 430.556C343.726 426.61 389.198 427.366 434.503 433.326C494.069 441.134 550.532 458.009 599.864 493.859C653.893 533.066 685.522 586.63 699.449 651.276C702.637 666.22 704.483 681.416 707 696.528C707 699.047 707 701.481 707 704C688.123 703.832 669.33 703.832 650.537 703.832Z" fill="#000000"/>
</svg>
