<svg width="527" height="527" viewBox="0 0 527 527" fill="none" xmlns="http://www.w3.org/2000/svg">
<path d="M509.928 527C506.718 527 503.445 527 500.236 527C494.588 522.764 488.426 519.107 483.42 514.229C444.718 475.917 406.273 437.348 367.764 398.78C366.288 397.304 365.261 395.314 363.977 393.517C361.474 395.25 360.19 396.148 358.843 396.983C345.685 405.261 333.041 414.567 319.178 421.497C277.781 442.162 233.752 448.451 188.054 441.456C142.484 434.525 102.948 414.759 69.5093 382.993C35.3002 350.456 13.3499 310.989 4.23602 264.591C2.43892 255.35 1.41201 245.916 0 236.547C0 226.856 0 217.166 0 207.54C0.834368 200.994 1.54037 194.448 2.63146 187.903C10.0124 142.21 29.5238 102.486 61.4865 69.0516C93.9627 35.0392 133.306 13.2841 179.518 4.23551C188.76 2.43863 198.195 1.41184 207.565 0C217.257 0 226.948 0 236.576 0C247.166 1.60436 257.884 2.63116 268.282 4.94144C323.735 17.2629 368.406 46.3339 401.909 92.2186C428.48 128.67 442.665 169.677 443.948 214.792C445.232 260.741 433.679 303.416 408.648 342.178C404.091 349.237 399.021 355.975 393.501 363.933C394.913 364.896 396.582 365.73 397.865 366.949C436.696 405.71 475.526 444.408 514.164 483.361C519.106 488.303 522.764 494.528 527 500.111C527 503.32 527 506.593 527 509.801C524.112 518.272 518.335 523.92 509.928 527ZM222.135 44.0878C124.385 44.152 44.3499 124.113 44.1574 221.915C43.9648 319.524 123.807 399.55 221.942 399.999C319.563 400.448 400.497 319.588 400.176 221.915C399.919 124.049 319.82 44.0236 222.135 44.0878Z" fill="#F5790C"/>
</svg>
