<svg width="25" height="6" viewBox="0 0 25 6" fill="none" xmlns="http://www.w3.org/2000/svg">
<path d="M22.1875 0.375C22.9334 0.375 23.6488 0.671316 24.1762 1.19876C24.7037 1.72621 25 2.44158 25 3.1875C25 3.93342 24.7037 4.64879 24.1762 5.17624C23.6488 5.70368 22.9334 6 22.1875 6C21.4416 6 20.7262 5.70368 20.1988 5.17624C19.6713 4.64879 19.375 3.93342 19.375 3.1875C19.375 2.44158 19.6713 1.72621 20.1988 1.19876C20.7262 0.671316 21.4416 0.375 22.1875 0.375ZM12.8125 0.375C13.5584 0.375 14.2738 0.671316 14.8012 1.19876C15.3287 1.72621 15.625 2.44158 15.625 3.1875C15.625 3.93342 15.3287 4.64879 14.8012 5.17624C14.2738 5.70368 13.5584 6 12.8125 6C12.0666 6 11.3512 5.70368 10.8238 5.17624C10.2963 4.64879 10 3.93342 10 3.1875C10 2.44158 10.2963 1.72621 10.8238 1.19876C11.3512 0.671316 12.0666 0.375 12.8125 0.375V0.375ZM3.4375 0.375C4.18342 0.375 4.89879 0.671316 5.42624 1.19876C5.95368 1.72621 6.25 2.44158 6.25 3.1875C6.25 3.93342 5.95368 4.64879 5.42624 5.17624C4.89879 5.70368 4.18342 6 3.4375 6C2.69158 6 1.97621 5.70368 1.44876 5.17624C0.921316 4.64879 0.625 3.93342 0.625 3.1875C0.625 2.44158 0.921316 1.72621 1.44876 1.19876C1.97621 0.671316 2.69158 0.375 3.4375 0.375V0.375Z" fill='#808080'/>
</svg>
