<svg width="6" height="25" viewBox="0 0 6 25" fill="none" xmlns="http://www.w3.org/2000/svg">
<path d="M5.625 21.5625C5.625 22.3084 5.32868 23.0238 4.80124 23.5512C4.27379 24.0787 3.55842 24.375 2.8125 24.375C2.06658 24.375 1.35121 24.0787 0.823762 23.5512C0.296316 23.0238 0 22.3084 0 21.5625C0 20.8166 0.296316 20.1012 0.823762 19.5738C1.35121 19.0463 2.06658 18.75 2.8125 18.75C3.55842 18.75 4.27379 19.0463 4.80124 19.5738C5.32868 20.1012 5.625 20.8166 5.625 21.5625ZM5.625 12.1875C5.625 12.9334 5.32868 13.6488 4.80124 14.1762C4.27379 14.7037 3.55842 15 2.8125 15C2.06658 15 1.35121 14.7037 0.823762 14.1762C0.296316 13.6488 0 12.9334 0 12.1875C0 11.4416 0.296316 10.7262 0.823762 10.1988C1.35121 9.67132 2.06658 9.375 2.8125 9.375C3.55842 9.375 4.27379 9.67132 4.80124 10.1988C5.32868 10.7262 5.625 11.4416 5.625 12.1875V12.1875ZM5.625 2.8125C5.625 3.55842 5.32868 4.27379 4.80124 4.80124C4.27379 5.32868 3.55842 5.625 2.8125 5.625C2.06658 5.625 1.35121 5.32868 0.823762 4.80124C0.296316 4.27379 0 3.55842 0 2.8125C0 2.06658 0.296316 1.35121 0.823762 0.823762C1.35121 0.296316 2.06658 0 2.8125 0C3.55842 0 4.27379 0.296316 4.80124 0.823762C5.32868 1.35121 5.625 2.06658 5.625 2.8125V2.8125Z" fill='#808080'/>
</svg>
