<svg width="23" height="25" viewBox="0 0 23 25" fill="none" xmlns="http://www.w3.org/2000/svg">
<path d="M13.5 3.75C13.5 3.15326 13.2629 2.58097 12.841 2.15901C12.419 1.73705 11.8467 1.5 11.25 1.5C10.6533 1.5 10.081 1.73705 9.65901 2.15901C9.23705 2.58097 9 3.15326 9 3.75H7.5C7.5 2.75544 7.89509 1.80161 8.59835 1.09835C9.30161 0.395088 10.2554 0 11.25 0C12.2446 0 13.1984 0.395088 13.9017 1.09835C14.6049 1.80161 15 2.75544 15 3.75H21.75C21.9489 3.75 22.1397 3.82902 22.2803 3.96967C22.421 4.11032 22.5 4.30109 22.5 4.5C22.5 4.69891 22.421 4.88968 22.2803 5.03033C22.1397 5.17098 21.9489 5.25 21.75 5.25H20.919L18.975 22.095C18.8904 22.8261 18.5399 23.5006 17.9904 23.9901C17.4408 24.4797 16.7305 24.7501 15.9945 24.75H6.5055C5.76952 24.7501 5.05918 24.4797 4.50963 23.9901C3.96007 23.5006 3.60964 22.8261 3.525 22.095L1.5795 5.25H0.75C0.574462 5.25006 0.404464 5.18854 0.269612 5.07617C0.134759 4.96379 0.0435967 4.80767 0.0119998 4.635L0 4.5C0 4.30109 0.0790178 4.11032 0.21967 3.96967C0.360322 3.82902 0.551088 3.75 0.75 3.75H13.5ZM19.407 5.25H3.0915L5.0145 21.9225C5.05683 22.2882 5.23216 22.6255 5.50709 22.8703C5.78203 23.1151 6.13738 23.2502 6.5055 23.25H15.9945C16.3624 23.2499 16.7173 23.1146 16.992 22.8698C17.2666 22.6251 17.4417 22.2879 17.484 21.9225L19.407 5.25ZM9 9C9.3675 9 9.675 9.2325 9.738 9.5385L9.75 9.657V18.8445C9.75 19.206 9.414 19.5 9 19.5C8.6325 19.5 8.325 19.2675 8.262 18.9615L8.25 18.843V9.6585C8.25 9.2955 8.586 9.0015 9 9.0015V9ZM13.5 9C13.8675 9 14.175 9.2325 14.238 9.5385L14.25 9.657V18.8445C14.25 19.206 13.914 19.5 13.5 19.5C13.1325 19.5 12.825 19.2675 12.762 18.9615L12.75 18.843V9.6585C12.75 9.2955 13.086 9.0015 13.5 9.0015V9Z" fill="black"/>
</svg>
