<svg width="779" height="685" viewBox="0 0 779 685" fill="none" xmlns="http://www.w3.org/2000/svg">
<path d="M0 242.007C0 229.306 0 216.605 0 203.99C0.428823 202.016 0.943409 200.128 1.37223 198.154C4.54552 182.278 6.17505 165.972 10.9779 150.697C32.5048 82.9861 74.8725 34.2414 143.055 10.6414C158.15 5.40653 174.445 3.51853 190.226 0.0858102C201.375 0.0858102 212.525 0.0858102 223.674 0.0858102C225.304 0.514901 227.019 1.20145 228.648 1.37308C250.776 3.77599 271.788 10.0407 291.514 20.2531C332.938 41.7934 362.27 75.3483 385.083 115.254C386.37 117.571 387.742 119.802 389.286 122.462C396.061 111.649 401.893 101.609 408.497 92.0828C439.544 47.5432 479.51 15.3614 533.885 3.94762C541.003 2.48872 548.207 1.28727 555.412 0C566.561 0 577.71 0 588.86 0C590.832 0.42909 592.719 0.858173 594.692 1.37308C609.958 4.89162 625.739 6.6938 640.319 12.1003C710.474 38.3607 751.898 90.6239 771.195 161.595C774.969 175.412 776.513 189.83 779 203.99C779 216.691 779 229.392 779 242.007C778.314 246.47 777.456 250.846 776.856 255.309C770.767 300.621 751.984 340.612 725.912 377.514C694.093 422.568 655.413 461.272 614.332 497.659C558.842 546.661 502.581 594.719 446.405 643.035C429.766 657.367 412.614 671.012 395.632 685C391.601 685 387.485 685 383.454 685C379.766 682.511 375.735 680.28 372.39 677.362C315.614 628.703 258.752 580.13 202.233 531.128C157.635 492.424 113.81 452.776 75.9017 407.121C46.0556 371.163 20.9266 332.373 8.83376 286.547C4.88859 271.958 2.916 256.854 0 242.007ZM389.629 631.793C407.21 616.689 424.278 602.357 441.002 587.596C501.294 534.389 562.016 481.783 621.45 427.717C653.355 398.625 681.314 365.671 703.098 327.997C739.977 264.148 744.951 198.326 711.589 131.902C662.96 34.9279 528.996 10.8131 455.839 104.698C436.628 129.328 422.562 156.618 412.099 185.968C409.869 192.147 405.409 198.926 400.006 202.359C387.227 210.598 372.218 203.046 366.987 186.998C357.638 158.334 344.002 131.902 325.734 107.873C266.385 29.7789 177.962 33.3832 121.7 71.1432C70.7558 105.299 48.8001 155.76 45.9698 215.489C43.8257 260.458 58.3199 300.792 82.1625 338.209C107.034 377.256 138.081 411.069 172.13 441.963C222.473 487.447 273.932 531.815 325.134 576.526C346.318 594.977 367.759 613.084 389.629 631.793Z" fill="#000000"/>
</svg>
