<svg width="742" height="741" viewBox="0 0 742 741" fill="none" xmlns="http://www.w3.org/2000/svg">
<path d="M0 374.8C0 371.9 0 369 0 366.1C4.8 359.1 8.70001 351.1 14.6 345.2C124.7 234.7 235 124.5 345.4 14.4C351 8.79999 358.3 4.7 364.8 0C368.7 0 372.5 0 376.4 0C382.9 4.8 390.1 8.79999 395.8 14.4C506.1 124.4 616.4 234.7 726.5 345.1C732.4 351 736.3 359 741.1 366.1C741.1 369 741.1 371.9 741.1 374.8C740.6 375.8 740 376.8 739.6 377.9C732.4 397.3 711.1 402.6 695.7 388.8C693.6 386.9 691.6 385 688.2 381.7C688.2 386.1 688.2 388.9 688.2 391.7C688.2 496.9 688 602.1 688.4 707.2C688.5 723.6 683.4 735.3 667.4 740.9C469.6 740.9 271.8 740.9 73.9 740.9C58.3 735.4 52.8 724.1 52.9 707.9C53.2 602.5 53.1 497.1 53.1 391.6C53.1 388.8 53.1 386.1 53.1 381.7C49.5 385 47.3 387.2 45 389.2C35.6 397.4 23 399.5 13.8 392.4C7.9 388.2 4.5 380.8 0 374.8ZM238.3 687.6C238.3 683.9 238.3 681.1 238.3 678.2C238.3 603.9 238.3 529.6 238.3 455.3C238.3 433.1 247.9 423.5 269.9 423.4C295.7 423.4 321.5 423.4 347.3 423.4C389 423.4 430.7 423.5 472.5 423.4C482.1 423.4 490.6 425.5 497 433.3C502.3 439.7 502.9 447.2 502.9 455.1C502.9 529.4 502.9 603.7 502.9 678C502.9 681.1 502.9 684.2 502.9 687.5C547.5 687.5 591.2 687.5 635.4 687.5C635.4 685 635.4 683.1 635.4 681.2C635.4 565.7 635.4 450.1 635.2 334.6C635.2 330.9 632.8 326.4 630.1 323.6C545.7 238.9 461.1 154.3 376.5 69.7C374.7 67.9 372.7 66.2 370.7 64.3C368.9 66 367.4 67.2 366.1 68.6C280.8 153.9 195.5 239.1 110.4 324.6C107.8 327.2 106.1 332.1 106.1 335.9C105.9 450.5 105.9 565 105.9 679.6C105.9 682.2 105.9 684.8 105.9 687.8C150.1 687.6 193.6 687.6 238.3 687.6ZM449.7 476.8C396.6 476.8 344 476.8 291.6 476.8C291.6 547.4 291.6 617.4 291.6 687.4C344.6 687.4 397 687.4 449.7 687.4C449.7 617.1 449.7 547.3 449.7 476.8Z" fill="#000000"/>
</svg>
