<svg width="709" height="749" viewBox="0 0 709 749" fill="none" xmlns="http://www.w3.org/2000/svg">
<path d="M0 463.793C6.62691 444.956 11.2026 441.865 32.5823 441.865C92.1455 441.865 151.709 441.865 211.272 441.865C214.112 441.865 216.952 441.865 221.055 441.865C221.055 438.922 221.055 436.346 221.055 433.771C221.055 414.492 220.976 395.287 221.055 376.008C221.134 361.733 230.679 352.609 245.984 352.609C318.328 352.536 390.672 352.536 463.094 352.609C478.321 352.609 487.945 361.66 488.024 376.008C488.103 409.636 488.024 443.263 488.024 476.891C488.024 479.54 488.024 482.189 488.024 485.721C491.653 485.721 494.73 485.721 497.728 485.721C557.291 485.721 616.854 485.721 676.418 485.721C697.797 485.721 702.373 488.737 709 507.648C709 580.79 709 653.931 709 727.072C707.107 737.668 701.032 745.1 690.145 749C466.408 749 242.592 749 18.8551 749C7.96807 745.1 1.97229 737.595 0 727.072C0 639.362 0 551.577 0 463.793ZM268.39 704.703C326.296 704.703 383.414 704.703 440.374 704.703C440.374 601.761 440.374 499.333 440.374 396.98C382.704 396.98 325.665 396.98 268.39 396.98C268.39 499.775 268.39 601.981 268.39 704.703ZM48.124 704.556C106.109 704.556 163.385 704.556 220.581 704.556C220.581 631.415 220.581 558.936 220.581 486.309C162.911 486.309 105.636 486.309 48.124 486.309C48.124 559.303 48.124 631.635 48.124 704.556ZM660.482 704.924C660.482 646.205 660.482 588.148 660.482 530.091C602.733 530.091 545.694 530.091 488.577 530.091C488.577 588.663 488.577 646.72 488.577 704.924C546.089 704.924 602.97 704.924 660.482 704.924Z" fill="#B2B2B2"/>
<path d="M359.194 0.0735817C367.162 3.53198 374.184 7.94695 376.393 16.6297C379.39 27.9615 372.842 38.9253 361.009 42.6781C349.648 46.2836 337.42 41.2064 332.371 30.8312C327.322 20.3089 331.74 8.24128 342.785 2.64898C344.599 1.76599 346.414 0.882994 348.228 0C351.936 0.0735829 355.565 0.0735817 359.194 0.0735817Z" fill="#B2B2B2"/>
<path d="M280.381 125.312C298.605 108.314 316.277 91.7578 334.028 75.2016C347.439 62.6926 359.904 62.619 373.316 75.1281C391.066 91.6106 408.738 108.167 426.883 125.091C429.329 123.693 431.538 122.589 433.589 121.265C451.497 109.933 469.485 98.601 487.314 87.1221C496.308 81.309 505.538 79.8374 515.084 85.4297C524.314 90.8012 527.312 98.9689 525.656 108.755C518.555 150.33 511.455 191.904 504.355 233.478C501.436 250.55 498.438 267.621 495.677 284.692C492.837 302.278 485.026 308.68 465.856 308.68C390.908 308.68 315.882 308.68 240.935 308.68C222.869 308.68 214.822 302.058 211.982 285.502C202.199 228.033 192.18 170.639 182.555 113.17C181.688 107.799 181.214 101.765 182.871 96.6143C187.289 82.7071 204.961 77.7771 218.767 86.3127C239.121 98.9689 259.317 111.993 280.381 125.312ZM236.596 150.698C243.302 189.77 249.692 226.93 256.161 264.383C321.484 264.383 386.412 264.383 451.418 264.383C457.888 226.709 464.278 189.549 470.905 150.845C460.333 157.467 451.103 163.354 441.873 169.167C426.725 178.733 417.179 177.923 404.399 166.077C395.326 157.614 386.254 149.226 377.26 140.764C369.608 133.553 362.034 126.195 354.618 119.204C353.04 120.014 352.488 120.161 352.173 120.455C335.526 135.908 318.88 151.507 302.234 166.96C290.716 177.629 280.697 178.512 267.285 170.124C257.503 163.943 247.878 157.835 236.596 150.698Z" fill="#B2B2B2"/>
<path d="M212.456 44.2232C212.298 56.2172 201.569 66.0037 188.709 65.8565C175.929 65.7094 165.436 55.6285 165.594 43.6345C165.752 31.6405 176.481 21.854 189.34 22.0012C202.2 22.2219 212.613 32.2292 212.456 44.2232Z" fill="#B2B2B2"/>
<path d="M541.829 44.1496C541.671 56.1436 531.02 65.9301 518.161 65.8565C505.381 65.7094 494.888 55.7021 495.046 43.7081C495.203 31.7141 505.854 21.9276 518.713 22.0011C531.494 22.1483 541.986 32.1556 541.829 44.1496Z" fill="#B2B2B2"/>
<path d="M331.03 484.911C312.412 480.643 303.891 469.165 308.783 455.625C311.938 446.869 319.827 440.909 329.689 440.541C338.288 440.173 346.887 440.173 355.486 440.541C367.951 441.056 377.734 450.033 377.892 461.733C378.207 491.387 378.207 521.114 377.892 550.768C377.734 562.762 367.162 571.96 354.698 572.033C341.917 572.107 331.267 562.688 331.109 550.326C330.793 528.693 331.03 507.06 331.03 484.911Z" fill="#B2B2B2"/>
</svg>
