<svg width="741" height="741" viewBox="0 0 741 741" fill="none" xmlns="http://www.w3.org/2000/svg">
<path d="M370.5 0C165.898 0 0 165.898 0 370.5C0 575.102 165.898 741 370.5 741C575.102 741 741 575.102 741 370.5C741 165.898 575.102 0 370.5 0ZM370.5 678.147C200.632 678.147 62.8527 540.368 62.8527 370.5C62.8527 200.632 200.632 62.8527 370.5 62.8527C540.368 62.8527 678.147 200.632 678.147 370.5C678.147 540.368 540.368 678.147 370.5 678.147Z" fill="#000000"/>
<path d="M243.563 367.709C244.257 365.554 245.413 363.527 246.825 361.91C249.497 358.806 253.299 358.113 257.281 358.113C289.674 358.139 322.093 358.139 354.513 358.139C355.591 358.139 356.645 358.139 358.109 358.139C358.109 356.882 358.109 355.856 358.109 354.804C358.109 322.914 358.237 291.05 358.032 259.16C357.98 252.746 360.087 246.794 366.252 243.947C371.082 241.715 376.194 243.716 379.996 246.974C383.104 249.642 383.798 253.439 383.798 257.416C383.772 289.793 383.772 322.17 383.772 354.547C383.772 355.625 383.772 356.677 383.772 358.139C385.031 358.139 386.058 358.139 387.111 358.139C419.043 358.139 450.948 358.242 482.879 358.062C486.167 358.036 489.584 358.447 492.487 360.038C494.593 361.192 496.237 362.962 497.419 365.015C497.984 365.99 498.601 367.118 498.806 368.299C499.602 372.404 497.856 376.714 495.235 379.818C492.512 383.025 488.685 383.795 484.6 383.795C452.181 383.769 419.762 383.769 387.343 383.769C386.264 383.769 385.211 383.769 383.746 383.769C383.746 385.026 383.746 386.052 383.746 387.104C383.746 418.994 383.618 450.858 383.823 482.748C383.849 486.032 383.438 489.469 381.794 492.394C380.176 495.293 377.478 497.269 374.421 498.449C371.518 499.552 368.513 498.859 365.816 497.602C364.377 496.935 362.99 496.089 361.808 495.011C359.522 492.882 358.469 489.983 358.16 486.93C358.083 486.109 358.058 485.313 358.058 484.492C358.058 452.115 358.058 419.738 358.058 387.361C358.058 386.283 358.058 385.231 358.058 383.769C356.799 383.769 355.771 383.769 354.718 383.769C322.787 383.769 290.882 383.666 258.95 383.846C255.688 383.872 252.271 383.461 249.369 381.87C244.334 379.125 241.79 373.224 243.563 367.709Z" fill="#000000"/>
</svg>
