<svg width="741" height="741" viewBox="0 0 741 741" fill="none" xmlns="http://www.w3.org/2000/svg">
<path d="M522.67 344.036H396.964V218.33C396.964 214.692 393.987 211.714 390.348 211.714H350.652C347.013 211.714 344.036 214.692 344.036 218.33V344.036H218.33C214.692 344.036 211.714 347.013 211.714 350.652V390.348C211.714 393.987 214.692 396.964 218.33 396.964H344.036V522.67C344.036 526.309 347.013 529.286 350.652 529.286H390.348C393.987 529.286 396.964 526.309 396.964 522.67V396.964H522.67C526.309 396.964 529.286 393.987 529.286 390.348V350.652C529.286 347.013 526.309 344.036 522.67 344.036Z" fill="#B2B2B2"/>
<path d="M370.5 0C165.898 0 0 165.898 0 370.5C0 575.102 165.898 741 370.5 741C575.102 741 741 575.102 741 370.5C741 165.898 575.102 0 370.5 0ZM370.5 678.147C200.632 678.147 62.8527 540.368 62.8527 370.5C62.8527 200.632 200.632 62.8527 370.5 62.8527C540.368 62.8527 678.147 200.632 678.147 370.5C678.147 540.368 540.368 678.147 370.5 678.147Z" fill="#B2B2B2"/>
</svg>
