<svg width="276" height="265" viewBox="0 0 276 265" fill="none" xmlns="http://www.w3.org/2000/svg">
<path d="M275.592 104.803C275.592 106.8 275.592 108.835 275.592 110.832C273.896 120.14 267.904 126.585 261.309 132.84C249.174 144.297 237.417 156.092 225.357 167.661C223.021 169.923 222.23 172.108 222.833 175.349C226.262 194.606 229.578 213.901 232.781 233.196C235.156 247.629 225.621 261.158 211.225 264.022C210.472 264.173 209.793 264.475 209.04 264.701C207.231 264.701 205.46 264.701 203.651 264.701C199.392 263.118 194.908 261.95 190.913 259.877C174.332 251.36 157.863 242.617 141.395 233.837C138.832 232.48 136.722 232.48 134.197 233.874C127.451 237.605 120.706 241.336 113.734 244.652C99.7904 251.322 87.1281 260.668 71.941 264.701C70.3582 264.701 68.8131 264.701 67.2304 264.701C66.2506 264.475 65.3084 264.173 64.3286 264.022C50.3474 261.46 40.3985 247.667 42.6596 233.912C45.9382 214.278 49.2169 194.644 52.7216 175.048C53.2869 171.844 52.4578 169.772 50.2343 167.661C38.2128 156.092 26.3796 144.334 14.2827 132.84C7.68778 126.622 1.65815 120.178 0 110.832C0 108.835 0 106.8 0 104.803C0.226111 104.049 0.489906 103.333 0.640647 102.579C3.16555 90.4444 12.0593 82.3044 24.2316 80.6086C43.2626 77.933 62.2559 75.0312 81.2869 72.3932C84.5279 71.941 86.3744 70.4336 87.8065 67.5318C96.0595 50.4605 104.539 33.4644 112.867 16.3931C116.033 9.87352 120.706 5.01213 127.451 2.26111C129.901 1.2813 132.539 0.753704 135.101 0C136.91 0 138.681 0 140.49 0C140.792 0.150741 141.056 0.414536 141.357 0.452221C151.645 1.99731 158.466 7.83852 162.913 17.0337C171.015 33.8036 179.457 50.4605 187.559 67.2304C189.18 70.5844 191.365 71.9787 194.908 72.4686C213.826 75.1066 232.706 77.8953 251.624 80.6463C263.269 82.3421 271.899 90.143 274.65 101.222C274.989 102.428 275.29 103.597 275.592 104.803ZM126.396 123.72C126.396 125.379 126.396 126.434 126.396 127.527C126.396 140.716 126.396 153.944 126.396 167.134C126.396 168.566 126.396 170.073 126.698 171.468C128.017 177.271 133.217 180.776 139.247 180.173C144.862 179.57 149.196 174.897 149.233 168.98C149.309 155.338 149.271 141.659 149.271 128.017C149.271 126.848 149.271 125.718 149.271 124.323C149.987 124.663 150.213 124.7 150.364 124.813C154.735 129.147 159.069 133.519 163.478 137.815C168.83 143.053 176.216 143.317 180.851 138.531C185.486 133.745 185.072 126.698 179.796 121.459C168.641 110.305 157.449 99.1874 146.256 88.0703C141.546 83.3596 134.687 83.0205 130.014 87.6557C118.218 99.2628 106.536 111.021 94.8913 122.816C91.1605 126.622 90.6329 131.747 93.1201 136.119C95.645 140.528 100.695 143.015 105.707 141.659C107.968 141.056 110.154 139.586 111.887 137.965C116.673 133.519 121.233 128.808 126.396 123.72Z" fill="#ff5349"/>
</svg>
